<svg width="800" height="800" viewBox="0 0 800 800" xmlns="http://www.w3.org/2000/svg">   <defs>     <linearGradient id="textGradient" x1="0%" y1="0%" x2="100%" y2="0%">       <stop offset="0%" stop-color="#4FC3F7"/>       <stop offset="100%" stop-color="#81D4FA"/>     </linearGradient>     <linearGradient id="wave4Gradient" x1="0%" y1="0%" x2="100%" y2="100%">       <stop offset="0%" stop-color="#0277BD"/>       <stop offset="100%" stop-color="#01579B"/>     </linearGradient>     <linearGradient id="wave3Gradient" x1="0%" y1="0%" x2="100%" y2="100%">       <stop offset="0%" stop-color="#0288D1"/>       <stop offset="100%" stop-color="#0277BD"/>     </linearGradient>     <linearGradient id="wave2Gradient" x1="0%" y1="0%" x2="100%" y2="100%">       <stop offset="0%" stop-color="#29B6F6"/>       <stop offset="100%" stop-color="#0288D1"/>     </linearGradient>     <linearGradient id="wave1Gradient" x1="0%" y1="0%" x2="100%" y2="100%">       <stop offset="0%" stop-color="#81D4FA"/>       <stop offset="100%" stop-color="#29B6F6"/>     </linearGradient>     <linearGradient id="shineGradient" x1="0%" y1="0%" x2="0%" y2="100%">       <stop offset="0%" stop-color="#FFFFFF" stop-opacity="0.6"/>       <stop offset="100%" stop-color="#FFFFFF" stop-opacity="0"/>     </linearGradient>     <path id="textArc" d="M 70,360 A 330,330 0 1,1 730,360" fill="none" />   </defs>   <rect width="800" height="800" fill="#000000"/>   <g transform="scale(0.6) translate(150, 150)">   <g transform="translate(400, 360) scale(2.4)">          <path d="M -90,70 Q -50,110 0,130 Q 50,150 100,110 Q 140,70 100,30 Q 60,-10 10,-30 Q -40,-50 -90,-10 L -130,30 Z" fill="url(#wave4Gradient)"/>     <path d="M -80,60 Q -40,100 0,120 Q 40,140 80,100 Q 120,60 80,20 Q 40,-20 0,-40 Q -40,-60 -80,-20 L -120,20 Z" fill="url(#wave3Gradient)"/>          <path d="M -60,40 Q -20,80 20,100 Q 60,120 100,80 Q 140,40 100,0 Q 60,-40 20,-60 Q -20,-80 -60,-40 L -100,0 Z" fill="url(#wave2Gradient)"/>          <path d="M -40,20 Q 0,60 40,80 Q 80,100 120,60 Q 160,20 120,-20 Q 80,-60 40,-80 Q 0,-100 -40,-60 L -80,-20 Z" fill="url(#wave1Gradient)"/>     <path d="M -30,15 Q 0,50 35,65" fill="none" stroke="url(#shineGradient)" stroke-width="3" stroke-linecap="round"/>     <path d="M 50,60 Q 90,40 105,10" fill="none" stroke="url(#shineGradient)" stroke-width="2" stroke-linecap="round"/>          <circle cx="90" cy="-30" r="4" fill="#81D4FA" fill-opacity="0.8"/>     <circle cx="110" cy="-10" r="2.5" fill="#4FC3F7" fill-opacity="0.6"/>     <circle cx="70" cy="-50" r="1.5" fill="#B3E5FC" fill-opacity="0.5"/>     <circle cx="-60" cy="90" r="3" fill="#0288D1" fill-opacity="0.4"/>   </g>   <text font-family="Arial, Helvetica, sans-serif" font-weight="bold" font-size="64" fill="url(#textGradient)" letter-spacing="6" style="text-transform: uppercase;">     <textPath href="#textArc" text-anchor="middle" startOffset="50%">       Blue Monitor     </textPath>   </text>      </g> </svg>